<svg width="31" height="31" viewBox="0 0 31 31" fill="none" xmlns="http://www.w3.org/2000/svg">
<path d="M15.4302 4.18919C10.4185 4.18919 6.0656 6.33336 3.93435 9.47211C3.83102 9.61419 3.72769 9.76919 3.65019 9.91128C2.91394 11.1254 2.51352 12.4688 2.51352 13.8767C2.51352 16.0854 3.5081 18.1263 5.17435 19.7538C4.77394 20.5934 4.23144 21.3425 3.57269 21.9754C2.06144 23.4609 3.03019 26.1346 5.14852 26.1475H5.2131C7.71894 26.1475 9.96644 24.9463 11.426 23.0734C12.6789 23.3963 14.0352 23.5642 15.4302 23.5642C22.5602 23.5642 28.3469 19.2242 28.3469 13.8767C28.3469 8.52919 22.5602 4.18919 15.4302 4.18919ZM15.4302 20.9809C14.5002 20.9809 13.5831 20.8904 12.7177 20.7225C11.8394 20.5546 10.9998 20.2963 10.2377 19.9863C9.91477 20.8259 9.41102 21.5621 8.76519 22.1563C7.9256 22.9313 6.85352 23.435 5.66519 23.5384C6.2981 22.8796 6.82769 22.1563 7.25394 21.3684C7.6931 20.6063 8.02894 19.7925 8.27435 18.9529C7.35727 18.3329 6.6081 17.6225 6.0656 16.8217C5.4456 15.9175 5.09685 14.9229 5.09685 13.8767C5.09685 13.36 5.18727 12.8563 5.35519 12.3784C5.6781 11.3579 6.32394 10.4279 7.21519 9.62711C9.12685 7.90919 12.1235 6.77253 15.4302 6.77253C21.036 6.77253 25.7635 10.0275 25.7635 13.8767C25.7635 17.7259 21.036 20.9809 15.4302 20.9809Z" fill="#4FD06B"/>
<path d="M11.5552 15.8142C12.2686 15.8142 12.8469 15.2359 12.8469 14.5225C12.8469 13.8092 12.2686 13.2309 11.5552 13.2309C10.8418 13.2309 10.2635 13.8092 10.2635 14.5225C10.2635 15.2359 10.8418 15.8142 11.5552 15.8142Z" fill="#4FD06B"/>
<path d="M15.4302 15.8142C16.1436 15.8142 16.7219 15.2359 16.7219 14.5225C16.7219 13.8092 16.1436 13.2309 15.4302 13.2309C14.7168 13.2309 14.1385 13.8092 14.1385 14.5225C14.1385 15.2359 14.7168 15.8142 15.4302 15.8142Z" fill="#4FD06B"/>
<path d="M19.3052 15.8142C20.0186 15.8142 20.5969 15.2359 20.5969 14.5225C20.5969 13.8092 20.0186 13.2309 19.3052 13.2309C18.5918 13.2309 18.0135 13.8092 18.0135 14.5225C18.0135 15.2359 18.5918 15.8142 19.3052 15.8142Z" fill="#4FD06B"/>
</svg>
