<svg width="31" height="31" viewBox="0 0 31 31" fill="none" xmlns="http://www.w3.org/2000/svg">
<path d="M15.4301 4.18921C10.4184 4.18921 6.06551 6.33338 3.93426 9.47213C3.83093 9.61421 3.72759 9.76921 3.65009 9.91129C2.91384 11.1255 2.51343 12.4688 2.51343 13.8767C2.51343 16.0855 3.50801 18.1263 5.17426 19.7538C4.77384 20.5934 4.23134 21.3425 3.57259 21.9755C2.06134 23.4609 3.03009 26.1346 5.14843 26.1475H5.21301C7.71884 26.1475 9.96634 24.9463 11.4259 23.0734C12.6788 23.3963 14.0351 23.5642 15.4301 23.5642C22.5601 23.5642 28.3468 19.2242 28.3468 13.8767C28.3468 8.52921 22.5601 4.18921 15.4301 4.18921ZM15.4301 20.9809C14.5001 20.9809 13.583 20.8905 12.7176 20.7225C11.8393 20.5546 10.9997 20.2963 10.2376 19.9863C9.91468 20.8259 9.41093 21.5621 8.76509 22.1563C7.92551 22.9313 6.85343 23.435 5.66509 23.5384C6.29801 22.8796 6.82759 22.1563 7.25384 21.3684C7.69301 20.6063 8.02884 19.7925 8.27426 18.953C7.35718 18.333 6.60801 17.6225 6.06551 16.8217C5.44551 15.9175 5.09676 14.923 5.09676 13.8767C5.09676 13.36 5.18718 12.8563 5.35509 12.3784C5.67801 11.358 6.32384 10.428 7.21509 9.62713C9.12676 7.90921 12.1234 6.77254 15.4301 6.77254C21.0359 6.77254 25.7634 10.0275 25.7634 13.8767C25.7634 17.7259 21.0359 20.9809 15.4301 20.9809Z" fill="#231F20"/>
<path d="M11.5551 15.8142C12.2685 15.8142 12.8468 15.2359 12.8468 14.5226C12.8468 13.8092 12.2685 13.2309 11.5551 13.2309C10.8417 13.2309 10.2634 13.8092 10.2634 14.5226C10.2634 15.2359 10.8417 15.8142 11.5551 15.8142Z" fill="#231F20"/>
<path d="M15.4301 15.8142C16.1435 15.8142 16.7218 15.2359 16.7218 14.5226C16.7218 13.8092 16.1435 13.2309 15.4301 13.2309C14.7167 13.2309 14.1384 13.8092 14.1384 14.5226C14.1384 15.2359 14.7167 15.8142 15.4301 15.8142Z" fill="#231F20"/>
<path d="M19.3051 15.8142C20.0185 15.8142 20.5968 15.2359 20.5968 14.5226C20.5968 13.8092 20.0185 13.2309 19.3051 13.2309C18.5917 13.2309 18.0134 13.8092 18.0134 14.5226C18.0134 15.2359 18.5917 15.8142 19.3051 15.8142Z" fill="#231F20"/>
</svg>
