<svg width="31" height="31" viewBox="0 0 31 31" fill="none" xmlns="http://www.w3.org/2000/svg">
<path d="M27.6592 11.8833L16.0342 3.16458C15.8017 2.99667 15.5304 2.90625 15.2592 2.90625C14.9879 2.90625 14.7167 2.99667 14.4842 3.16458L7.50915 8.39583L2.85915 11.8833C1.86457 12.6325 2.39415 14.2083 3.63415 14.2083H4.92582V24.5417C4.92582 25.9625 6.08832 27.125 7.50915 27.125H11.3842C12.0946 27.125 12.7404 26.8408 13.2054 26.3629C13.6833 25.8979 13.9675 25.2521 13.9675 24.5417V19.375H16.5508V24.5417C16.5508 25.9625 17.7133 27.125 19.1342 27.125H23.0092C24.43 27.125 25.5925 25.9625 25.5925 24.5417V14.2083H26.8842C28.1242 14.2083 28.6537 12.6325 27.6592 11.8833ZM23.0092 24.5417H19.1342V19.375C19.1342 17.9542 17.9717 16.7917 16.5508 16.7917H13.9675C12.5467 16.7917 11.3842 17.9542 11.3842 19.375V24.5417H7.50915V11.625L8.56832 10.8242L15.2592 5.8125L23.0092 11.625V24.5417Z" fill="#4FD06B"/>
</svg>
