<svg width="31" height="31" viewBox="0 0 31 31" fill="none" xmlns="http://www.w3.org/2000/svg">
<g clip-path="url(#clip0_40_673)">
<path d="M15.5 4.98583C17.6313 4.98583 19.375 6.72958 19.375 8.86083C19.375 10.9921 17.6313 12.7358 15.5 12.7358C13.3688 12.7358 11.625 10.9921 11.625 8.86083C11.625 6.72958 13.3688 4.98583 15.5 4.98583ZM15.5 2.4025C11.935 2.4025 9.04167 5.29583 9.04167 8.86083C9.04167 12.4258 11.935 15.3192 15.5 15.3192C19.065 15.3192 21.9583 12.4258 21.9583 8.86083C21.9583 5.29583 19.065 2.4025 15.5 2.4025Z" fill="#4FD06B"/>
<path d="M16.1458 19.1942C19.84 19.1942 22.8883 22.0358 23.2242 25.6525H7.77584C8.09875 22.0358 11.1471 19.1942 14.8542 19.1942H16.1458ZM16.1458 16.6108H14.8542C9.50667 16.6108 5.16667 20.9508 5.16667 26.2983C5.16667 27.3704 6.03209 28.2358 7.10417 28.2358H23.8958C24.9679 28.2358 25.8333 27.3704 25.8333 26.2983C25.8333 20.9508 21.4933 16.6108 16.1458 16.6108Z" fill="#4FD06B"/>
</g>
<defs>
<clipPath id="clip0_40_673">
<rect width="31" height="31" fill="white"/>
</clipPath>
</defs>
</svg>
