<svg width="31" height="31" viewBox="0 0 31 31" fill="none" xmlns="http://www.w3.org/2000/svg">
<g clip-path="url(#clip0_3_326)">
<path d="M15.5001 4.98586C17.6313 4.98586 19.3751 6.72961 19.3751 8.86086C19.3751 10.9921 17.6313 12.7359 15.5001 12.7359C13.3688 12.7359 11.6251 10.9921 11.6251 8.86086C11.6251 6.72961 13.3688 4.98586 15.5001 4.98586ZM15.5001 2.40253C11.9351 2.40253 9.04175 5.29586 9.04175 8.86086C9.04175 12.4259 11.9351 15.3192 15.5001 15.3192C19.0651 15.3192 21.9584 12.4259 21.9584 8.86086C21.9584 5.29586 19.0651 2.40253 15.5001 2.40253Z" fill="#231F20"/>
<path d="M16.1459 19.1942C19.8401 19.1942 22.8884 22.0358 23.2242 25.6525H7.77591C8.09883 22.0358 11.1472 19.1942 14.8542 19.1942H16.1459ZM16.1459 16.6108H14.8542C9.50675 16.6108 5.16675 20.9508 5.16675 26.2983C5.16675 27.3704 6.03216 28.2358 7.10425 28.2358H23.8959C24.968 28.2358 25.8334 27.3704 25.8334 26.2983C25.8334 20.9508 21.4934 16.6108 16.1459 16.6108Z" fill="#231F20"/>
</g>
<defs>
<clipPath id="clip0_3_326">
<rect width="31" height="31" fill="white"/>
</clipPath>
</defs>
</svg>
