<svg width="26" height="26" viewBox="0 0 26 26" fill="none" xmlns="http://www.w3.org/2000/svg">
<g clip-path="url(#clip0_3_230)">
<path d="M13 24.9166C14.3406 24.9166 15.4375 23.8166 15.4375 22.4722H10.5625C10.5625 23.8166 11.6594 24.9166 13 24.9166ZM20.3125 17.5833V11.4722C20.3125 7.71998 18.3259 4.57887 14.8281 3.74776V2.91665C14.8281 1.9022 14.0116 1.08331 13 1.08331C11.9884 1.08331 11.1719 1.9022 11.1719 2.91665V3.74776C7.68625 4.57887 5.6875 7.70776 5.6875 11.4722V17.5833L3.25 20.0278V21.25H22.75V20.0278L20.3125 17.5833ZM17.875 18.8055H8.125V11.4722C8.125 8.44109 9.96531 5.9722 13 5.9722C16.0347 5.9722 17.875 8.44109 17.875 11.4722V18.8055Z" fill="white"/>
</g>
<defs>
<clipPath id="clip0_3_230">
<rect width="26" height="26" fill="white"/>
</clipPath>
</defs>
</svg>
