<svg width="31" height="31" viewBox="0 0 31 31" fill="none" xmlns="http://www.w3.org/2000/svg">
<path d="M22.4879 6.48416C21.8808 3.11291 18.9746 0.645828 15.5 0.645828C12.0254 0.645828 9.11916 3.11291 8.51208 6.48416C4.84375 6.74249 1.9375 9.81666 1.9375 13.5625C1.9375 16.7529 4.09458 19.5558 7.14291 20.4083L8.02125 25.1358C8.08583 25.4846 8.20208 25.7817 8.35708 26.0787L8.525 26.4533L8.58958 26.6083C9.40333 28.3004 12.6454 29.0625 15.5 29.0625C18.3546 29.0625 21.5967 28.3004 22.4492 26.4921L22.6558 26.0529C22.7979 25.7817 22.9142 25.4846 22.9788 25.1229L23.8571 20.4083C26.9054 19.5558 29.0625 16.7529 29.0625 13.5625C29.0625 9.82958 26.1692 6.76833 22.4879 6.48416ZM15.5 26.4792C13.7562 26.4792 12.4 26.1562 11.6121 25.8462C12.5937 25.4329 14.0275 25.1875 15.5 25.1875C16.9725 25.1875 18.4062 25.4329 19.3879 25.8462C18.6 26.1562 17.2437 26.4792 15.5 26.4792ZM20.8862 22.2683L20.5375 23.6504L20.4083 24.1671C19.22 23.6117 17.4762 23.25 15.5 23.25C13.5237 23.25 11.78 23.6117 10.5917 24.1671L10.3333 24.2833L10.0492 21.8808L9.59708 19.53L9.36458 18.2512L8.09875 17.98C6.03208 17.5408 4.52083 15.6808 4.52083 13.5625C4.52083 11.0696 6.54875 9.04166 9.08041 9.04166H10.8371L11.005 7.29791C11.2375 4.97291 13.1621 3.22916 15.5 3.22916C17.8379 3.22916 19.7625 4.97291 19.995 7.29791L20.2017 9.04166H21.9583C24.4513 9.04166 26.4792 11.0696 26.4792 13.5625C26.4792 15.6808 24.9679 17.5408 22.9012 17.98L21.6354 18.2512L21.4029 19.53L20.8862 22.2683Z" fill="#4FD06B"/>
<path d="M13.8854 16.5721V20.8862C13.8854 21.4804 13.4462 21.9583 12.9167 21.9583C12.3871 21.9583 11.9479 21.4804 11.9479 20.8862V16.5721C11.9479 15.9779 12.3871 15.5 12.9167 15.5C13.4462 15.5 13.8854 15.9779 13.8854 16.5721Z" fill="#4FD06B"/>
<path d="M19.0521 16.5721V20.8862C19.0521 21.4804 18.6129 21.9583 18.0833 21.9583C17.5537 21.9583 17.1146 21.4804 17.1146 20.8862V16.5721C17.1146 15.9779 17.5537 15.5 18.0833 15.5C18.6129 15.5 19.0521 15.9779 19.0521 16.5721Z" fill="#4FD06B"/>
</svg>
