<svg width="31" height="31" viewBox="0 0 31 31" fill="none" xmlns="http://www.w3.org/2000/svg">
<path d="M23.8958 9.61C23.7537 8.4475 22.6171 7.56916 21.2608 7.56916H20.8217C20.8217 4.71458 18.5096 2.4025 15.655 2.4025C12.8004 2.4025 10.4883 4.71458 10.4883 7.56916H10.0492C8.69291 7.56916 7.55624 8.4475 7.41416 9.61L5.33458 25.6912C5.16666 27.0475 6.39374 28.2358 7.98249 28.2358H23.3275C24.9162 28.2358 26.1433 27.0475 25.9754 25.6912L23.8958 9.61ZM15.655 4.98583C17.0758 4.98583 18.2383 6.14833 18.2383 7.56916H13.0717C13.0717 6.14833 14.2342 4.98583 15.655 4.98583ZM7.94374 25.6525L9.94583 10.1654C9.94583 10.1654 10.0104 10.1525 10.0492 10.1525H21.2608C21.2608 10.1525 21.3383 10.1525 21.3642 10.1654L23.3662 25.6525H7.94374Z" fill="#4FD06B"/>
<path d="M23.405 21.7775H11.78C11.0696 21.7775 10.4883 22.3587 10.4883 23.0692C10.4883 23.7796 11.0696 24.3608 11.78 24.3608H23.405V21.7775Z" fill="#4FD06B"/>
<path d="M11.78 12.7358C11.0696 12.7358 10.4883 12.1546 10.4883 11.4442V10.1525H13.0717V11.4442C13.0717 12.1546 12.4904 12.7358 11.78 12.7358Z" fill="#4FD06B"/>
<path d="M19.53 12.7358C18.8196 12.7358 18.2383 12.1546 18.2383 11.4442V10.1525H20.8217V11.4442C20.8217 12.1546 20.2404 12.7358 19.53 12.7358Z" fill="#4FD06B"/>
</svg>
