<svg width="31" height="31" viewBox="0 0 31 31" fill="none" xmlns="http://www.w3.org/2000/svg">
<path d="M23.8959 9.61003C23.7538 8.44753 22.6171 7.56919 21.2609 7.56919H20.8217C20.8217 4.71461 18.5096 2.40253 15.655 2.40253C12.8004 2.40253 10.4884 4.71461 10.4884 7.56919H10.0492C8.69294 7.56919 7.55627 8.44753 7.41419 9.61003L5.33461 25.6913C5.16669 27.0475 6.39377 28.2359 7.98252 28.2359H23.3275C24.9163 28.2359 26.1434 27.0475 25.9754 25.6913L23.8959 9.61003ZM15.655 4.98586C17.0759 4.98586 18.2384 6.14836 18.2384 7.56919H13.0717C13.0717 6.14836 14.2342 4.98586 15.655 4.98586ZM7.94377 25.6525L9.94586 10.1654C9.94586 10.1654 10.0104 10.1525 10.0492 10.1525H21.2609C21.2609 10.1525 21.3384 10.1525 21.3642 10.1654L23.3663 25.6525H7.94377Z" fill="#231F20"/>
<path d="M23.4051 21.7775H11.7801C11.0697 21.7775 10.4884 22.3588 10.4884 23.0692C10.4884 23.7796 11.0697 24.3609 11.7801 24.3609H23.4051V21.7775Z" fill="#231F20"/>
<path d="M11.7801 12.7359C11.0697 12.7359 10.4884 12.1546 10.4884 11.4442V10.1525H13.0717V11.4442C13.0717 12.1546 12.4905 12.7359 11.7801 12.7359Z" fill="#231F20"/>
<path d="M19.5301 12.7359C18.8197 12.7359 18.2384 12.1546 18.2384 11.4442V10.1525H20.8217V11.4442C20.8217 12.1546 20.2405 12.7359 19.5301 12.7359Z" fill="#231F20"/>
</svg>
