<svg width="30" height="30" viewBox="0 0 30 30" fill="none" xmlns="http://www.w3.org/2000/svg">
<path d="M15 17.8289C17.3714 17.8289 19.2714 15.9776 19.2714 13.6842L19.2857 5.39474C19.2857 3.10132 17.3714 1.25 15 1.25C12.6286 1.25 10.7143 3.10132 10.7143 5.39474V13.6842C10.7143 15.9776 12.6286 17.8289 15 17.8289ZM13.2857 5.25658C13.2857 4.34474 14.0571 3.59868 15 3.59868C15.9429 3.59868 16.7143 4.34474 16.7143 5.25658L16.7 13.8224C16.7 14.7342 15.9429 15.4803 15 15.4803C14.0571 15.4803 13.2857 14.7342 13.2857 13.8224V5.25658ZM22.5714 13.6842C22.5714 17.8289 18.9429 20.7303 15 20.7303C11.0571 20.7303 7.42857 17.8289 7.42857 13.6842H5C5 18.3954 8.88571 22.2914 13.5714 22.9684V27.5H16.4286V22.9684C21.1143 22.3053 25 18.4092 25 13.6842H22.5714Z" fill="#4FD06B"/>
</svg>
